<?xml version="1.0" encoding="utf-8"?>
<!-- Generator: Adobe Illustrator 22.1.0, SVG Export Plug-In . SVG Version: 6.00 Build 0)  -->
<svg version="1.1" id="Layer_1" xmlns="http://www.w3.org/2000/svg" xmlns:xlink="http://www.w3.org/1999/xlink" x="0px" y="0px"
	 viewBox="0 0 173.9 36.6" style="enable-background:new 0 0 173.9 36.6;" xml:space="preserve">
<g>
	<path d="M4.7,31.8H2.5V10.7h8.9v1.9H4.7v7.5h5.4v1.9H4.7V31.8z"/>
	<path d="M23.6,31.8h-1l-0.8-2.1c-0.5,0.8-1,1.4-1.8,1.9c-0.7,0.5-1.5,0.7-2.4,0.7c-3.1,0-4.7-1.5-4.7-4.5v-3.2c0-3,1.6-4.5,4.7-4.5
		h3.8v-5.3c0-0.8-0.2-1.4-0.7-1.8c-0.5-0.4-1.2-0.6-2.2-0.6c-1.9,0-2.9,0.8-2.9,2.5v1.9h-2.3v-1.8c0-1.4,0.4-2.6,1.3-3.4
		c0.9-0.8,2.1-1.2,3.9-1.2c1.7,0,3,0.4,3.9,1.2c0.9,0.8,1.3,1.9,1.3,3.4V31.8z M21.3,21.9h-3.8c-0.9,0-1.5,0.2-1.9,0.7
		s-0.5,1.1-0.5,1.9v3.2c0,0.8,0.2,1.5,0.5,1.9c0.3,0.5,1,0.7,1.9,0.7c0.9,0,1.8-0.4,2.5-1.1s1.2-1.4,1.2-2.1V21.9z M22.2,6.1L21,7.3
		l-3.7,1.8l-0.8-0.8l4-4L22.2,6.1z"/>
	<path d="M26.8,10.7h7.1v1.9h-4.9v15.5c0,0.6,0.2,1.1,0.5,1.5c0.3,0.4,0.8,0.6,1.3,0.6c0.6,0,1-0.2,1.3-0.6c0.3-0.4,0.5-0.9,0.5-1.5
		v-3.9h2.3v3.7c0,1.4-0.4,2.4-1.1,3.1c-0.7,0.7-1.7,1.1-2.9,1.1c-1.2,0-2.2-0.4-3-1.1s-1.1-1.8-1.1-3.1V10.7z"/>
	<path d="M39.3,31.8H37V10.7h2.3V31.8z"/>
	<path d="M45.6,31.8h-2.3V10.7h1l0.8,2.1c0.5-0.8,1-1.4,1.8-1.9c0.7-0.5,1.5-0.7,2.4-0.7c2.2,0,3.6,0.8,4.2,2.4
		c1-1.6,2.4-2.4,4.1-2.4c3,0,4.6,1.5,4.6,4.5v17h-2.3v-17c0-1.7-0.8-2.6-2.3-2.6c-0.9,0-1.7,0.4-2.5,1.1c-0.8,0.7-1.2,1.4-1.2,2.1
		v16.4h-2.3v-17c0-1.7-0.8-2.6-2.3-2.6c-0.9,0-1.7,0.4-2.5,1.1c-0.8,0.7-1.2,1.4-1.2,2.1V31.8z"/>
	<path d="M75.9,31.8h-1l-0.8-2.1c-0.5,0.8-1,1.4-1.8,1.9c-0.7,0.5-1.5,0.7-2.4,0.7c-3.1,0-4.7-1.5-4.7-4.5v-3.2c0-3,1.6-4.5,4.7-4.5
		h3.8v-5.3c0-0.8-0.2-1.4-0.7-1.8c-0.5-0.4-1.2-0.6-2.2-0.6c-1.9,0-2.9,0.8-2.9,2.5v1.9h-2.3v-1.8c0-1.4,0.4-2.6,1.3-3.4
		c0.9-0.8,2.1-1.2,3.9-1.2c1.7,0,3,0.4,3.9,1.2c0.9,0.8,1.3,1.9,1.3,3.4V31.8z M73.7,21.9h-3.8c-0.9,0-1.5,0.2-1.9,0.7
		s-0.5,1.1-0.5,1.9v3.2c0,0.8,0.2,1.5,0.5,1.9c0.3,0.5,1,0.7,1.9,0.7c0.9,0,1.8-0.4,2.5-1.1s1.2-1.4,1.2-2.1V21.9z"/>
	<path d="M92.6,27.7V26h2.3v1.8c0,1.4-0.4,2.6-1.3,3.4c-0.9,0.8-2.2,1.2-4,1.2c-1.8,0-3.1-0.4-4-1.2s-1.4-1.9-1.4-3.4v-13
		c0-1.4,0.4-2.6,1.3-3.4c0.9-0.8,2.2-1.2,4-1.2c1.8,0,3.1,0.4,4,1.2c0.9,0.8,1.4,1.9,1.4,3.4v3.1h-2.3v-3.1c0-1.7-1-2.6-3.1-2.6
		c-2.1,0-3.1,0.9-3.1,2.6v13c0,1.7,1,2.6,3.1,2.6C91.6,30.3,92.6,29.5,92.6,27.7z"/>
	<path d="M108.2,31.8h-1l-0.8-2.1c-0.5,0.8-1,1.4-1.8,1.9c-0.7,0.5-1.5,0.7-2.4,0.7c-3.1,0-4.7-1.5-4.7-4.5v-3.2
		c0-3,1.6-4.5,4.7-4.5h3.8v-5.3c0-0.8-0.2-1.4-0.7-1.8c-0.5-0.4-1.2-0.6-2.2-0.6c-1.9,0-2.9,0.8-2.9,2.5v1.9h-2.3v-1.8
		c0-1.4,0.4-2.6,1.3-3.4c0.9-0.8,2.1-1.2,3.9-1.2c1.7,0,3,0.4,3.9,1.2c0.9,0.8,1.3,1.9,1.3,3.4V31.8z M105.9,21.9h-3.8
		c-0.9,0-1.5,0.2-1.9,0.7s-0.5,1.1-0.5,1.9v3.2c0,0.8,0.2,1.5,0.5,1.9c0.3,0.5,1,0.7,1.9,0.7c0.9,0,1.8-0.4,2.5-1.1s1.2-1.4,1.2-2.1
		V21.9z"/>
	<path d="M114.2,31.8h-2.3V10.7h1l0.8,2.1c0.5-0.8,1-1.4,1.8-1.9c0.7-0.5,1.5-0.7,2.4-0.7c2.2,0,3.6,0.8,4.2,2.4
		c1-1.6,2.4-2.4,4.1-2.4c3,0,4.6,1.5,4.6,4.5v17h-2.3v-17c0-1.7-0.8-2.6-2.3-2.6c-0.9,0-1.7,0.4-2.5,1.1c-0.8,0.7-1.2,1.4-1.2,2.1
		v16.4h-2.3v-17c0-1.7-0.8-2.6-2.3-2.6c-0.9,0-1.7,0.4-2.5,1.1s-1.2,1.4-1.2,2.1V31.8z"/>
	<path d="M136.4,31.8h-2.3V10.7h4.9c1.7,0,3,0.4,3.8,1.2c0.9,0.8,1.3,1.9,1.3,3.3v5.5c0,1.4-0.4,2.6-1.3,3.4
		c-0.9,0.8-2.2,1.2-3.9,1.2h-2.6V31.8z M141.9,20.8v-5.5c0-0.8-0.2-1.5-0.7-1.9s-1.2-0.7-2.1-0.7h-2.6v10.7h2.6
		C141,23.4,141.9,22.5,141.9,20.8z"/>
	<path d="M157.5,14.8v13c0,1.4-0.5,2.6-1.4,3.4s-2.3,1.2-4.1,1.2s-3.2-0.4-4.1-1.2c-0.9-0.8-1.4-1.9-1.4-3.4v-13
		c0-1.4,0.5-2.6,1.4-3.4c0.9-0.8,2.3-1.2,4.1-1.2c1.8,0,3.2,0.4,4.1,1.2C157,12.2,157.5,13.3,157.5,14.8z M155.2,27.7v-13
		c0-1.7-1.1-2.6-3.2-2.6s-3.2,0.9-3.2,2.6v13c0,1.7,1.1,2.6,3.2,2.6S155.2,29.5,155.2,27.7z"/>
	<path d="M171.4,27.7c0,3-1.8,4.5-5.5,4.5c-3.7,0-5.5-1.5-5.5-4.5V25h2.3v2.9c0,0.8,0.3,1.4,0.8,1.8c0.5,0.4,1.3,0.6,2.4,0.6
		s1.9-0.2,2.4-0.6c0.5-0.4,0.8-1,0.8-1.8s-0.1-1.3-0.2-1.8c-0.2-0.4-0.5-0.9-1-1.4l-5.7-5.6c-0.7-0.7-1.1-1.3-1.4-2
		c-0.2-0.6-0.4-1.4-0.4-2.4c0-1.4,0.4-2.6,1.3-3.4c0.9-0.8,2.3-1.2,4.1-1.2c3.5,0,5.2,1.5,5.2,4.5v2.8h-2.3v-2.9
		c0-0.8-0.3-1.4-0.8-1.8c-0.5-0.4-1.3-0.6-2.3-0.6c-1,0-1.8,0.2-2.3,0.6c-0.5,0.4-0.8,1-0.8,1.8c0,0.8,0.1,1.4,0.2,1.8
		c0.2,0.4,0.5,0.9,1,1.4l5.8,5.6c0.6,0.7,1.1,1.4,1.3,2C171.3,26,171.4,26.8,171.4,27.7z"/>
</g>
</svg>
